<svg width="170" height="99" viewBox="0 0 170 99" fill="none" xmlns="http://www.w3.org/2000/svg">
<path d="M163.252 42.425C162.314 42.425 161.509 42.0935 160.837 41.4307C160.174 40.7583 159.843 39.9534 159.843 39.0159C159.843 38.0879 160.174 37.2924 160.837 36.6295C161.509 35.9666 162.314 35.6352 163.252 35.6352C164.161 35.6352 164.956 35.9666 165.638 36.6295C166.32 37.2924 166.661 38.0879 166.661 39.0159C166.661 39.6409 166.5 40.2138 166.178 40.7346C165.866 41.246 165.454 41.6579 164.942 41.9704C164.431 42.2735 163.867 42.425 163.252 42.425Z" fill="#6F0014"/>
<path d="M79.5 58.4099C79.5 80.0019 62.036 97.4999 40.5 97.4999C18.964 97.4999 1.5 80.0019 1.5 58.4099C1.5 36.818 18.964 19.3199 40.5 19.3199C62.036 19.3199 79.5 36.818 79.5 58.4099Z" fill="#6F0014" fill-opacity="0.97" stroke="#6F0014" stroke-width="3"/>
<path d="M95.2459 55.4158C95.118 54.3362 94.5996 53.4982 93.6905 52.9016C92.7814 52.305 91.6663 52.0067 90.3453 52.0067C89.3794 52.0067 88.5342 52.1629 87.8098 52.4754C87.0925 52.7879 86.5314 53.2176 86.1265 53.7645C85.7288 54.3114 85.53 54.9328 85.53 55.6288C85.53 56.2112 85.6684 56.7119 85.9454 57.131C86.2295 57.5429 86.5917 57.8874 87.0321 58.1644C87.4724 58.4342 87.9341 58.658 88.417 58.8355C88.9 59.006 89.3439 59.1445 89.7487 59.251L91.9646 59.8476C92.5328 59.9967 93.1649 60.2027 93.8609 60.4655C94.564 60.7283 95.2352 61.0869 95.8744 61.5415C96.5207 61.9889 97.0534 62.5642 97.4724 63.2673C97.8915 63.9705 98.101 64.8334 98.101 65.8561C98.101 67.0351 97.792 68.1004 97.1741 69.0521C96.5633 70.0039 95.6684 70.7602 94.4895 71.3213C93.3176 71.8824 91.8936 72.1629 90.2175 72.1629C88.655 72.1629 87.302 71.9108 86.1585 71.4065C85.0221 70.9023 84.1273 70.1992 83.4738 69.2972C82.8275 68.3952 82.4618 67.3476 82.3765 66.1544H85.1038C85.1748 66.9783 85.4518 67.6601 85.9348 68.1999C86.4248 68.7325 87.0427 69.1303 87.7885 69.3931C88.5413 69.6487 89.351 69.7766 90.2175 69.7766C91.226 69.7766 92.1315 69.6132 92.9341 69.2865C93.7366 68.9527 94.3723 68.4911 94.841 67.9016C95.3098 67.305 95.5442 66.609 95.5442 65.8135C95.5442 65.0891 95.3417 64.4996 94.9369 64.045C94.5321 63.5905 93.9994 63.2212 93.3389 62.9371C92.6784 62.653 91.9646 62.4044 91.1976 62.1914L88.5129 61.4243C86.8084 60.9342 85.4589 60.2347 84.4646 59.3256C83.4703 58.4165 82.9731 57.2269 82.9731 55.7567C82.9731 54.5351 83.3034 53.4698 83.9639 52.5607C84.6315 51.6445 85.5264 50.9342 86.6486 50.43C87.7778 49.9186 89.0385 49.6629 90.4305 49.6629C91.8368 49.6629 93.0868 49.9151 94.1805 50.4193C95.2743 50.9165 96.1407 51.5983 96.78 52.4648C97.4263 53.3313 97.7672 54.3149 97.8027 55.4158H95.2459ZM102.445 71.7794V49.9612H115.613V52.305H105.087V59.6771H114.931V62.0209H105.087V69.4357H115.783V71.7794H102.445ZM120.375 71.7794V49.9612H127.747C129.458 49.9612 130.858 50.2702 131.944 50.8881C133.038 51.4989 133.848 52.3263 134.373 53.3703C134.899 54.4144 135.162 55.5791 135.162 56.8646C135.162 58.1502 134.899 59.3185 134.373 60.3696C133.855 61.4208 133.052 62.2588 131.965 62.8838C130.879 63.5017 129.487 63.8107 127.789 63.8107H122.505V61.4669H127.704C128.876 61.4669 129.817 61.2645 130.527 60.8597C131.238 60.4548 131.752 59.908 132.072 59.219C132.399 58.523 132.562 57.7382 132.562 56.8646C132.562 55.9911 132.399 55.2098 132.072 54.5209C131.752 53.832 131.234 53.2922 130.517 52.9016C129.799 52.5039 128.848 52.305 127.662 52.305H123.017V71.7794H120.375Z" fill="black"/>
<line x1="80.672" y1="39.2794" x2="154.151" y2="39.2794" stroke="#6F0014" stroke-width="7"/>
<path d="M39.2139 46.5772H45.2935V66.8613C45.2935 68.7363 44.8721 70.3651 44.0293 71.7476C43.1959 73.1302 42.0359 74.1956 40.5491 74.9437C39.0624 75.6918 37.3342 76.0658 35.3645 76.0658C33.6126 76.0658 32.0217 75.7581 30.5918 75.1425C29.1713 74.5175 28.0444 73.5706 27.2111 72.3016C26.3777 71.0232 25.9658 69.4181 25.9753 67.4863H32.0974C32.1164 68.2533 32.2726 68.9115 32.5662 69.4607C32.8692 70.0005 33.2812 70.4171 33.802 70.7107C34.3323 70.9948 34.9573 71.1368 35.677 71.1368C36.4346 71.1368 37.0738 70.9759 37.5946 70.6539C38.1249 70.3224 38.5274 69.8395 38.802 69.205C39.0766 68.5706 39.2139 67.7893 39.2139 66.8613V46.5772ZM77.1116 61.1226C77.1116 64.295 76.5103 66.9938 75.3077 69.2192C74.1145 71.4446 72.4857 73.1444 70.4213 74.3187C68.3664 75.4834 66.0558 76.0658 63.4895 76.0658C60.9043 76.0658 58.5842 75.4787 56.5293 74.3045C54.4743 73.1302 52.8503 71.4304 51.6571 69.205C50.4639 66.9796 49.8673 64.2855 49.8673 61.1226C49.8673 57.9503 50.4639 55.2514 51.6571 53.026C52.8503 50.8007 54.4743 49.1056 56.5293 47.9408C58.5842 46.7666 60.9043 46.1795 63.4895 46.1795C66.0558 46.1795 68.3664 46.7666 70.4213 47.9408C72.4857 49.1056 74.1145 50.8007 75.3077 53.026C76.5103 55.2514 77.1116 57.9503 77.1116 61.1226ZM70.8759 61.1226C70.8759 59.0677 70.5681 57.3348 69.9526 55.9238C69.3465 54.5128 68.4895 53.4427 67.3815 52.7135C66.2736 51.9844 64.9762 51.6198 63.4895 51.6198C62.0027 51.6198 60.7054 51.9844 59.5974 52.7135C58.4895 53.4427 57.6277 54.5128 57.0122 55.9238C56.4062 57.3348 56.1031 59.0677 56.1031 61.1226C56.1031 63.1776 56.4062 64.9105 57.0122 66.3215C57.6277 67.7325 58.4895 68.8026 59.5974 69.5317C60.7054 70.2609 62.0027 70.6255 63.4895 70.6255C64.9762 70.6255 66.2736 70.2609 67.3815 69.5317C68.4895 68.8026 69.3465 67.7325 69.9526 66.3215C70.5681 64.9105 70.8759 63.1776 70.8759 61.1226Z" fill="white"/>
<path d="M43.5859 39.3693C42.6484 39.3693 41.8435 39.0379 41.1711 38.375C40.5083 37.7027 40.1768 36.8977 40.1768 35.9602C40.1768 35.0322 40.5083 34.2367 41.1711 33.5739C41.8435 32.911 42.6484 32.5795 43.5859 32.5795C44.495 32.5795 45.2905 32.911 45.9723 33.5739C46.6541 34.2367 46.995 35.0322 46.995 35.9602C46.995 36.5852 46.834 37.1581 46.5121 37.679C46.1996 38.1903 45.7876 38.6023 45.2763 38.9148C44.7649 39.2178 44.2015 39.3693 43.5859 39.3693Z" fill="white"/>
<path d="M140.955 73.6359L141.016 44.5451L147.167 44.5573L147.142 56.5601L159.627 56.585L159.653 44.5822L165.789 44.5944L165.728 73.6853L159.591 73.673L159.617 61.656L147.131 61.6312L147.105 73.6482L140.955 73.6359Z" fill="black"/>
</svg>
